<svg width="32" height="32" viewBox="0 0 32 32" fill="none" xmlns="http://www.w3.org/2000/svg">
<path d="M27.3392 20.9902C26.5235 20.6413 25.8286 20.0598 25.3413 19.3183C24.8541 18.5768 24.5962 17.7081 24.5997 16.8209C24.6102 16.0289 24.8223 15.2527 25.216 14.5654C25.6096 13.878 26.1719 13.3023 26.8497 12.8925C27.003 12.7977 27.1356 12.6729 27.2393 12.5254C27.343 12.378 27.4157 12.211 27.4531 12.0347C27.4905 11.8583 27.4917 11.6762 27.4567 11.4994C27.4217 11.3226 27.3512 11.1547 27.2494 11.0058C26.6401 10.1198 25.8458 9.37652 24.9213 8.82733C23.9968 8.27814 22.9641 7.93612 21.8946 7.82487C22.8901 6.24505 23.3418 4.38312 23.181 2.52276C23.1497 2.18495 22.9886 1.87243 22.7318 1.65078C22.4749 1.42913 22.1422 1.31558 21.8034 1.33396C19.514 1.53801 17.3917 2.61782 15.879 4.34828C14.92 5.45946 14.2433 6.78561 13.9063 8.21416C13.2101 7.97854 12.4811 7.85376 11.7462 7.84437C10.3855 7.88294 9.05783 8.27242 7.89196 8.97506C6.7261 9.6777 5.76156 10.6697 5.09186 11.8548C2.57493 16.2245 4.11465 22.7727 6.84119 26.7141C7.93494 28.2936 9.57622 30.6646 12.0521 30.6646C12.101 30.6646 12.1504 30.6646 12.1999 30.662C13.0295 30.6149 13.8416 30.4048 14.5899 30.0435C15.1876 29.7406 15.847 29.5793 16.517 29.5721C17.1471 29.5798 17.7667 29.7341 18.3269 30.0227C19.1454 30.4099 20.0374 30.6173 20.9428 30.6307C23.4935 30.5826 25.0001 28.382 26.1003 26.774C26.9684 25.4966 27.6478 24.1007 28.1172 22.6294C28.2173 22.3084 28.1928 21.9615 28.0486 21.6578C27.9045 21.354 27.6512 21.1157 27.3392 20.9902ZM17.8978 6.08919C18.5981 5.30585 19.4756 4.70136 20.4571 4.32617C20.2424 5.38249 19.7673 6.36847 19.0749 7.19465C18.605 7.75849 18.0332 8.22892 17.3894 8.58143L17.3855 8.58276C17.3477 8.59839 17.31 8.61271 17.2722 8.62833C17.0235 8.72599 16.7162 8.84708 16.4792 8.9252C16.708 7.8763 17.1957 6.90135 17.8978 6.08919ZM23.8998 25.2689C22.8282 26.834 21.9851 27.9447 20.8939 27.9642C20.3665 27.9625 19.8479 27.8287 19.3855 27.5749C18.4916 27.1393 17.5113 26.9106 16.517 26.9055C15.4882 26.9107 14.4733 27.1442 13.5456 27.5891C13.0946 27.8194 12.6026 27.9583 12.0977 27.998H12.058C10.974 27.998 9.80801 26.3144 9.03391 25.1959C7.09706 22.3964 5.31061 16.8183 7.40306 13.1855C7.84184 12.3993 8.47638 11.74 9.2451 11.2714C10.0138 10.8028 10.8906 10.5409 11.7904 10.5111L11.8353 10.5097C12.5944 10.5742 13.3356 10.7749 14.0235 11.1022C14.1986 11.1712 14.3712 11.2402 14.5424 11.304C14.586 11.3222 14.6309 11.3392 14.6765 11.3535C15.151 11.5443 15.655 11.6514 16.1661 11.6699C16.8897 11.6124 17.5966 11.4221 18.2514 11.1087C19.1744 10.6607 20.189 10.4338 21.2149 10.4459C22.3123 10.4889 23.3657 10.8884 24.2156 11.584C23.4893 12.2531 22.911 13.0668 22.5179 13.9728C22.1248 14.8787 21.9256 15.8568 21.933 16.8444V16.8457C21.9255 18.0412 22.2214 19.2191 22.7929 20.2691C23.3645 21.3191 24.1931 22.207 25.2013 22.8496C24.8502 23.6979 24.4142 24.5085 23.8998 25.2689Z" fill="white"/>
</svg>
