<svg width="16" height="16" viewBox="0 0 16 16" fill="none" xmlns="http://www.w3.org/2000/svg">
<path fill-rule="evenodd" clip-rule="evenodd" d="M2.62486 8.26714L3.43967 8.79919L3.4335 11.6968C3.45036 12.2225 3.62337 12.7313 3.93047 13.1583C4.23758 13.5853 4.66488 13.9111 5.1579 14.0944L7.2027 14.7744C7.46161 14.8548 7.73161 14.8938 8.0027 14.89C8.27398 14.8926 8.54423 14.8561 8.8051 14.7816L10.8499 14.1016C11.3415 13.9162 11.7674 13.5898 12.0742 13.1632C12.381 12.7367 12.555 12.229 12.5743 11.704V8.7968L13.3821 8.2667C13.4392 8.22934 13.4947 8.18976 13.5483 8.14807V9.9228C13.5489 10.0499 13.5998 10.1716 13.6899 10.2612C13.7803 10.351 13.9018 10.4024 14.0291 10.4048C14.157 10.4028 14.2792 10.3513 14.3699 10.2612C14.4601 10.1716 14.511 10.0499 14.5115 9.9228V6.39513C14.519 6.3164 14.5227 6.23718 14.5227 6.15772C14.5227 5.7391 14.4185 5.3271 14.2193 4.95889C14.0202 4.59068 13.7324 4.27787 13.3821 4.04873L9.54207 1.52872C9.0812 1.25264 8.55422 1.10639 8.01698 1.10547C7.47975 1.10456 6.95227 1.24903 6.49047 1.52354L2.62486 4.03633C2.27275 4.26563 1.98345 4.57919 1.78318 4.94859C1.58292 5.31799 1.47803 5.73152 1.47803 6.15171C1.47803 6.57191 1.58292 6.98544 1.78318 7.35484C1.98345 7.72424 2.27275 8.03784 2.62486 8.26714ZM8.00967 11.2051C7.47195 11.212 6.94319 11.0671 6.48407 10.7871L4.40153 9.42727L4.3967 11.6968C4.41743 12.0202 4.52882 12.3312 4.71813 12.5942C4.90744 12.8572 5.16701 13.0616 5.4671 13.1839L7.5119 13.864C7.83553 13.9486 8.17546 13.9486 8.4991 13.864L10.5439 13.1839C10.8435 13.063 11.1029 12.8599 11.2923 12.5981C11.4816 12.3363 11.5932 12.0264 11.6143 11.704V9.42681L9.54207 10.7867C9.08214 11.0707 8.55008 11.216 8.00967 11.2051Z" fill="#FFC107"/>
</svg>
