<svg version="1.2" xmlns="http://www.w3.org/2000/svg" viewBox="0 0 24 24" width="24" height="24">
	<style>
		.s0 { opacity: .4;fill: #0197f6 } 
		.s1 { fill: #0197f6 } 
	</style>
	<path fill-rule="evenodd" class="s0" d="m3.2 1.6l1.6-1.3c0.1-0.1 0.3-0.1 0.4 0l0.5 0.6q0.1 0.1 0 0.3l-0.2 0.6 0.3 0.5h0.4c0.1 0 0.2 0.1 0.2 0.3l0.2 1.2 1.3 0.4q0.1 0 0.1 0.1l0.2 0.4 1.6 0.7 1.7-0.4h0.1 0.6v-0.6q0-0.2 0.1-0.2l1-0.4 0.8-0.8q0-0.1 0.1-0.1l1.1-0.3q0.1 0 0.1 0h1.1q0 0 0 0 0.1 0 0.1 0 0 0 0 0 0 0 0 0.1l1 0.9h0.7q0 0 0.1 0l0.8 0.3q0.2 0.1 0.2 0.3v0.3l0.5 0.1q0.1 0.1 0.2 0.2l0.3 0.6h0.9c0.1 0 0.2 0.1 0.2 0.2v2.6q0 0.1 0 0.1l-0.7 1.2v0.7l0.3 0.2q0 0 0.1 0.1 0 0 0 0.1 0 0 0 0.1 0 0 0 0.1l-0.4 0.6 0.4 2.2 0.9 0.2c0.1 0 0.2 0.1 0.2 0.2v0.8q0 0.1-0.1 0.1l-0.9 1.5 0.9 1.5 1.3 0.6q0.1 0 0.1 0.2v1.3h0.2c0.1 0 0.2 0.1 0.2 0.3v0.7c0 0.2-0.1 0.3-0.2 0.3l-0.6 0.2-0.8 0.3-0.5 1.8c0 0.2-0.2 0.3-0.3 0.2l-1.1-0.4-3-0.4q0 0 0 0l-1.1-0.4q-0.1 0-0.2-0.2l-0.2-1.4-0.9-0.3-1.6 0.9q0 0.1-0.1 0.1l-1.5-0.4q-0.1 0-0.1-0.1l-1.5-1.2-1.1-0.5q-0.1 0-0.1 0 0 0 0-0.1 0 0-0.1 0 0 0 0-0.1l-0.6-1.6-1-1.5-1.7 0.3q-0.1 0-0.2-0.2l-0.9-1.6q0 0-0.1-0.1l-0.3-2-1.5-0.8q0-0.1 0-0.1l-0.9-1.5q-0.1-0.1-0.1-0.1v-1.1q0 0 0 0 0 0 0.1 0 0-0.1 0-0.1 0 0 0 0l0.6-0.8 0.2-0.9-0.8-0.2q-0.1 0-0.2-0.2l-0.6-1.6-0.7-1.6q0 0 0-0.1l-0.3-2.4q0-0.1 0.1-0.2l0.6-0.8c0.1-0.1 0.3-0.1 0.4 0l1 1.3c0 0 1.1 0.2 1.1 0.2z"/>
	<path fill-rule="evenodd" class="s1" d="m7.1 12.9c-0.3-1.5-2.3-1.5-2.7 0v0.1 0.1c-0.2 0.9-0.6 1.6-1.2 2.2-0.5 0.6-1.3 1-2.1 1.2-1.5 0.2-1.5 2.5 0 2.8q0.3 0.1 0.6 0.2 0.3 0.1 0.6 0.2 0.2 0.2 0.5 0.4 0.2 0.1 0.4 0.4c0.6 0.6 1 1.3 1.2 2.2v0.1c0.4 1.6 2.4 1.6 2.7 0.1l0.1-0.2c0.1-0.9 0.5-1.6 1.1-2.2 0.6-0.6 1.4-1 2.2-1.2 1.5-0.3 1.5-2.6 0-2.8-0.8-0.2-1.6-0.6-2.2-1.2-0.5-0.6-1-1.3-1.1-2.2l-0.1-0.1v-0.1q0 0 0 0z"/>
</svg>